<svg width="151" height="36" viewBox="0 0 151 36" fill="none" xmlns="http://www.w3.org/2000/svg">
<path fill-rule="evenodd" clip-rule="evenodd" d="M133.253 0C143.029 0 151 8.08475 151 18C151 27.9153 143.029 36 133.253 36H17.747H0V18.7627C0 18.6102 0 18.3051 0 18.1525C0 8.08474 7.97112 0 17.747 0H133.253Z" fill="#94448E"/>
<path d="M86.6296 16.1694V17.3897H92.1943H96.4055V16.1694V16.0169V11.1355H96.5559H99.263V17.8474V26.3897H96.2551V24.4067V19.983H92.7959C92.6455 19.983 92.3447 19.983 92.1943 19.983H86.4792V24.4067V26.3897H83.4712V19.983V11.1355H86.3288H86.4792V16.1694H86.6296Z" fill="white"/>
<path fill-rule="evenodd" clip-rule="evenodd" d="M42.8635 13.5762V26.3897H45.7211V13.5762V11.1355H42.8635V13.5762Z" fill="white"/>
<path fill-rule="evenodd" clip-rule="evenodd" d="M17.747 0C27.5229 0 35.494 8.08475 35.494 18C35.494 27.9153 27.5229 36 17.747 36H0V18.7627C0 18.6102 0 18.3051 0 18.1525C0 8.08474 7.97112 0 17.747 0Z" fill="#D0681B"/>
<path fill-rule="evenodd" clip-rule="evenodd" d="M25.267 23.3391C26.0189 23.3391 26.6205 23.9492 26.7709 24.712V24.8645V28.2204H24.0638V25.9323H10.5279C9.77592 25.9323 9.02393 25.3221 9.02393 24.4069V11.7458H12.0319V23.3391H21.2062V11.7458H24.2142V23.3391H25.267Z" fill="white"/>
<path fill-rule="evenodd" clip-rule="evenodd" d="M57.7529 13.4238H51.737V14.339V16.7797H57.7529H58.2041C59.1065 16.7797 59.8585 16.017 59.8585 15.1018C59.8585 14.1865 59.1065 13.4238 58.2041 13.4238C58.0537 13.4238 57.9033 13.4238 57.7529 13.4238ZM57.9033 19.678H51.737V22.7289V23.6441H57.9033H58.6553C59.7081 23.6441 60.6105 22.7289 60.6105 21.6611C60.6105 20.5933 59.7081 19.678 58.6553 19.678C58.6553 19.678 58.6553 19.678 58.5049 19.678H58.0537H57.9033ZM60.1593 26.0848C59.5577 26.2373 58.9561 26.3899 58.2041 26.3899H51.4362H50.3834C49.6314 26.3899 48.8794 25.7797 48.8794 24.8645V23.4916V22.7289V14.4916V13.1187V12.356C48.8794 11.5933 49.481 10.8306 50.3834 10.8306H53.9929H57.7529C60.1593 10.8306 62.1145 12.2034 62.1145 14.7967C62.1145 15.5594 61.9641 16.3221 61.5129 16.9323C61.3625 17.2373 61.0617 17.695 60.7609 17.8475C61.3625 18.1526 61.8137 18.4577 62.2649 19.0679C62.8664 19.8306 63.1672 20.7458 63.1672 21.8136C63.1672 22.4238 63.0168 23.034 62.8664 23.6441C62.5656 24.2543 62.2648 24.7119 61.8137 25.017C61.3625 25.6272 60.7609 25.9323 60.1593 26.0848Z" fill="white"/>
<path d="M69.0326 17.2373H78.6581V19.8306H69.7846H68.8822V23.7967H70.9878H80.1621V26.3899H68.8822H67.3783C66.6263 26.3899 65.8743 25.7797 65.8743 24.8645V23.7967V22.8814V14.4916V13.7289V12.356C65.8743 11.5933 66.4759 10.8306 67.3783 10.8306H70.9878H80.1621V13.4238H68.8822V17.2373H69.0326Z" fill="white"/>
<path fill-rule="evenodd" clip-rule="evenodd" d="M101.669 13.4238H107.836V26.3899H110.693V13.4238H116.86V10.8306H101.669V13.4238Z" fill="white"/>
<path fill-rule="evenodd" clip-rule="evenodd" d="M133.855 10.678C134.607 10.678 135.359 11.2882 135.359 12.2034V25.9322H132.351V15.2543L122.124 25.7797L121.973 25.9322C121.672 26.0848 121.672 26.2373 121.071 26.2373C120.469 26.2373 119.567 25.6271 119.567 24.7119V10.678H122.424V21.356L131.9 11.4407C132.952 10.5254 133.855 10.678 133.855 10.678Z" fill="white"/>
</svg>
