<?xml version="1.0" encoding="utf-8"?><svg xmlns="http://www.w3.org/2000/svg" xmlns:xlink="http://www.w3.org/1999/xlink"><symbol viewBox="0 0 492 492" id="arrow-left" xmlns="http://www.w3.org/2000/svg"><path d="M198.608 246.104L382.664 62.04c5.068-5.056 7.856-11.816 7.856-19.024 0-7.212-2.788-13.968-7.856-19.032l-16.128-16.12C361.476 2.792 354.712 0 347.504 0s-13.964 2.792-19.028 7.864L109.328 227.008c-5.084 5.08-7.868 11.868-7.848 19.084-.02 7.248 2.76 14.028 7.848 19.112l218.944 218.932c5.064 5.072 11.82 7.864 19.032 7.864 7.208 0 13.964-2.792 19.032-7.864l16.124-16.12c10.492-10.492 10.492-27.572 0-38.06L198.608 246.104z"/></symbol><symbol viewBox="0 0 492.004 492.004" id="arrow-right" xmlns="http://www.w3.org/2000/svg"><path d="M382.678 226.804L163.73 7.86C158.666 2.792 151.906 0 144.698 0s-13.968 2.792-19.032 7.86l-16.124 16.12c-10.492 10.504-10.492 27.576 0 38.064L293.398 245.9l-184.06 184.06c-5.064 5.068-7.86 11.824-7.86 19.028 0 7.212 2.796 13.968 7.86 19.04l16.124 16.116c5.068 5.068 11.824 7.86 19.032 7.86s13.968-2.792 19.032-7.86L382.678 265c5.076-5.084 7.864-11.872 7.848-19.088.016-7.244-2.772-14.028-7.848-19.108z"/></symbol><symbol viewBox="0 0 14 16" id="calendar" xmlns="http://www.w3.org/2000/svg"><path d="M10.75 9H7v3.75h3.75V9zM10 .75v1.5H4V.75H2.5v1.5h-.75c-.833 0-1.492.675-1.492 1.5L.25 14.25a1.5 1.5 0 0 0 1.5 1.5h10.5c.825 0 1.5-.675 1.5-1.5V3.75c0-.825-.675-1.5-1.5-1.5h-.75V.75H10zm2.25 13.5H1.75V6h10.5v8.25z" fill-opacity=".6"/></symbol><symbol viewBox="0 0 14 15" id="city" xmlns="http://www.w3.org/2000/svg"><path d="M9.25 7.25V3.372c0-.397-.158-.78-.443-1.057L7.525 1.032a.747.747 0 0 0-1.058 0L5.194 2.307a1.505 1.505 0 0 0-.443 1.065v.878h-3c-.825 0-1.5.675-1.5 1.5v7.5c0 .825.675 1.5 1.5 1.5h10.5c.825 0 1.5-.675 1.5-1.5v-4.5c0-.825-.675-1.5-1.5-1.5h-3zm-6 6h-1.5v-1.5h1.5v1.5zm0-3h-1.5v-1.5h1.5v1.5zm0-3h-1.5v-1.5h1.5v1.5zm4.5 6h-1.5v-1.5h1.5v1.5zm0-3h-1.5v-1.5h1.5v1.5zm0-3h-1.5v-1.5h1.5v1.5zm0-3h-1.5v-1.5h1.5v1.5zm4.5 9h-1.5v-1.5h1.5v1.5zm0-3h-1.5v-1.5h1.5v1.5z" fill-opacity=".6"/></symbol><symbol viewBox="0 0 16 16" id="clock" xmlns="http://www.w3.org/2000/svg"><path d="M7.25 4.813a.563.563 0 0 1 1.125 0v3.375l2.906 1.724a.539.539 0 1 1-.552.925L7.25 8.75V4.812z" fill-opacity=".6"/><path fill-rule="evenodd" clip-rule="evenodd" d="M.5 8C.5 3.86 3.853.5 7.992.5 12.14.5 15.5 3.86 15.5 8c0 4.14-3.36 7.5-7.508 7.5C3.853 15.5.5 12.14.5 8zM2 8c0 3.315 2.685 6 6 6s6-2.685 6-6-2.685-6-6-6-6 2.685-6 6z" fill-opacity=".6"/></symbol><symbol viewBox="0 0 17 15" id="home" xmlns="http://www.w3.org/2000/svg"><path d="M6.5 14V9.5h3V14h3.8V8h2.3L8.1 1.2.6 8h2.3v6h3.6z" stroke="#999" stroke-miterlimit="10" stroke-linecap="round" stroke-linejoin="round"/></symbol><symbol viewBox="0 0 14 20" id="loca" xmlns="http://www.w3.org/2000/svg"><path d="M7 0C3.13 0 0 3.13 0 7c0 5.25 7 13 7 13s7-7.75 7-13c0-3.87-3.13-7-7-7zM2 7c0-2.76 2.24-5 5-5s5 2.24 5 5c0 2.88-2.88 7.19-5 9.88C4.92 14.21 2 9.85 2 7z" fill-opacity=".7"/><path d="M7 9.5a2.5 2.5 0 1 0 0-5 2.5 2.5 0 0 0 0 5z" fill-opacity=".7"/></symbol><symbol viewBox="0 0 18 18" id="search" xmlns="http://www.w3.org/2000/svg"><path d="M12.5 11h-.79l-.28-.27A6.471 6.471 0 0 0 13 6.5 6.5 6.5 0 1 0 6.5 13c1.61 0 3.09-.59 4.23-1.57l.27.28v.79l5 4.99L17.49 16l-4.99-5zm-6 0C4.01 11 2 8.99 2 6.5S4.01 2 6.5 2 11 4.01 11 6.5 8.99 11 6.5 11z" fill-opacity=".6"/></symbol><symbol viewBox="0 0 12 16" id="ticket" xmlns="http://www.w3.org/2000/svg"><path d="M7.177 14.573c.343.434.77.927 1.323.927h2A1.5 1.5 0 0 0 12 14V2c0-.825-.668-1.493-1.5-1.493C6.58.507 5.416.5 1.5.5.675.5 0 1.175 0 2v12c0 .825.675 1.5 1.5 1.5h2c.552 0 .98-.493 1.323-.927A1.5 1.5 0 0 1 6 14a1.5 1.5 0 0 1 1.177.573zM8.595 14A3.01 3.01 0 0 0 6 12.5 3.01 3.01 0 0 0 3.405 14H1.5V2c3.258 0 5.735.013 9 0v12H8.595zM3.75 8.75v1.5h-1.5v-1.5h1.5zm3 0v1.5h-1.5v-1.5h1.5zm3 0v1.5h-1.5v-1.5h1.5z" fill-opacity=".6"/></symbol><symbol viewBox="0 0 410.155 410.155" id="twitter" xmlns="http://www.w3.org/2000/svg"><path d="M403.632 74.18a162.414 162.414 0 0 1-28.28 9.537 88.177 88.177 0 0 0 23.275-37.067c1.295-4.051-3.105-7.554-6.763-5.385a163.188 163.188 0 0 1-43.235 17.862 11.02 11.02 0 0 1-2.702.336c-2.766 0-5.455-1.027-7.57-2.891-16.156-14.239-36.935-22.081-58.508-22.081-9.335 0-18.76 1.455-28.014 4.325-28.672 8.893-50.795 32.544-57.736 61.724-2.604 10.945-3.309 21.9-2.097 32.56a3.166 3.166 0 0 1-.797 2.481 3.278 3.278 0 0 1-2.753 1.091c-62.762-5.831-119.358-36.068-159.363-85.14-2.04-2.503-5.952-2.196-7.578.593-7.834 13.44-11.974 28.812-11.974 44.454 0 23.972 9.631 46.563 26.36 63.032a79.24 79.24 0 0 1-20.169-7.808c-3.06-1.7-6.825.485-6.868 3.985-.438 35.612 20.412 67.3 51.646 81.569a79.567 79.567 0 0 1-16.786-1.399c-3.446-.658-6.341 2.611-5.271 5.952 10.138 31.651 37.39 54.981 70.002 60.278-27.066 18.169-58.585 27.753-91.39 27.753l-10.227-.006c-3.151 0-5.816 2.054-6.619 5.106-.791 3.006.666 6.177 3.353 7.74 36.966 21.513 79.131 32.883 121.955 32.883 37.485 0 72.549-7.439 104.219-22.109 29.033-13.449 54.689-32.674 76.255-57.141 20.09-22.792 35.8-49.103 46.692-78.201 10.383-27.737 15.871-57.333 15.871-85.589v-1.346c-.001-4.537 2.051-8.806 5.631-11.712a174.776 174.776 0 0 0 35.16-38.591c2.573-3.849-1.485-8.673-5.719-6.795z"/></symbol><symbol viewBox="0 0 24 24" id="user" xmlns="http://www.w3.org/2000/svg"><path d="M12 17.16c5 0 9.067 3.173 9.333 4.12H2.667C2.973 20.32 7 17.16 12 17.16zm0-2.653c-5 0-12 3.24-12 6.786v1.667a1 1 0 0 0 1 1h22a1 1 0 0 0 1-1v-1.667c0-3.56-6-6.786-12-6.786zm0-2.56C8.72 11.947 6.04 9.28 6.04 6 6.04 2.72 8.707.053 12 .053A5.952 5.952 0 0 1 17.947 6 5.952 5.952 0 0 1 12 11.947zm0-9.227C10.187 2.72 8.707 4.2 8.707 6c0 1.8 1.48 3.28 3.293 3.28 1.813 0 3.28-1.48 3.28-3.28 0-1.8-1.467-3.28-3.28-3.28z" fill-opacity=".6"/></symbol><symbol viewBox="0 0 461.001 461.001" id="youtube" xmlns="http://www.w3.org/2000/svg"><path d="M365.257 67.393H95.744C42.866 67.393 0 110.259 0 163.137v134.728c0 52.878 42.866 95.744 95.744 95.744h269.513c52.878 0 95.744-42.866 95.744-95.744V163.137c0-52.878-42.866-95.744-95.744-95.744zm-64.751 169.663l-126.06 60.123c-3.359 1.602-7.239-.847-7.239-4.568V168.607c0-3.774 3.982-6.22 7.348-4.514l126.06 63.881c3.748 1.899 3.683 7.274-.109 9.082z"/></symbol></svg>