<?xml version="1.0" standalone="no"?>
<!DOCTYPE svg PUBLIC "-//W3C//DTD SVG 20010904//EN"
 "http://www.w3.org/TR/2001/REC-SVG-20010904/DTD/svg10.dtd">
<svg version="1.0" xmlns="http://www.w3.org/2000/svg"
 width="260.000000pt" height="260.000000pt" viewBox="0 0 260.000000 260.000000"
 preserveAspectRatio="xMidYMid meet">
<metadata>
Created by potrace 1.11, written by Peter Selinger 2001-2013
</metadata>
<g transform="translate(0.000000,260.000000) scale(0.100000,-0.100000)"
fill="#000000" stroke="none">
<path d="M1150 2593 c-288 -44 -515 -147 -713 -323 -289 -256 -441 -608 -432
-1000 2 -80 6 -158 10 -175 21 -100 28 -128 51 -200 141 -442 511 -770 985
-871 117 -25 381 -25 498 0 315 67 570 223 766 466 139 172 233 385 269 611
14 83 15 331 2 394 -4 17 -11 53 -16 80 -54 267 -215 534 -435 720 -154 130
-371 237 -560 275 -27 5 -63 12 -80 16 -35 7 -308 13 -345 7z m-166 -655 c1
-2 23 -73 50 -158 26 -85 67 -218 91 -295 24 -77 67 -214 95 -305 54 -176 98
-313 109 -344 5 -12 22 32 53 135 26 85 76 253 113 374 37 121 68 225 70 230
1 6 5 17 8 25 3 8 24 80 48 160 23 80 46 153 51 163 8 15 24 17 128 17 66 0
120 -3 120 -7 -1 -5 -106 -348 -234 -763 l-232 -755 -152 -3 -151 -3 -14 48
c-8 27 -94 304 -192 618 -97 314 -186 599 -197 635 -11 36 -31 100 -45 142
-13 43 -22 81 -20 85 5 7 297 8 301 1z"/>
</g>
</svg>
